<svg id="instagram" xmlns="http://www.w3.org/2000/svg" width="24.78" height="24.781" viewBox="0 0 24.78 24.781">
  <path id="Path_73" data-name="Path 73" d="M17.4,0H7.382A7.391,7.391,0,0,0,0,7.382V17.4A7.391,7.391,0,0,0,7.382,24.78H17.4A7.391,7.391,0,0,0,24.78,17.4V7.382A7.391,7.391,0,0,0,17.4,0Zm4.889,17.4A4.889,4.889,0,0,1,17.4,22.288H7.382A4.889,4.889,0,0,1,2.493,17.4V7.382A4.889,4.889,0,0,1,7.382,2.493H17.4a4.889,4.889,0,0,1,4.889,4.889V17.4Z" fill="#1a2030"/>
  <path id="Path_74" data-name="Path 74" d="M139.409,133a6.409,6.409,0,1,0,6.409,6.409A6.416,6.416,0,0,0,139.409,133Zm0,10.325a3.916,3.916,0,1,1,3.916-3.916A3.916,3.916,0,0,1,139.409,143.325Z" transform="translate(-127.019 -127.019)" fill="#1a2030"/>
  <circle id="Ellipse_1" data-name="Ellipse 1" cx="1.536" cy="1.536" r="1.536" transform="translate(17.276 4.493)" fill="#1a2030"/>
</svg>
