<svg id="youtube" xmlns="http://www.w3.org/2000/svg" width="118.329" height="82.85" viewBox="0 0 118.329 82.85">
  <path id="Path_12" data-name="Path 12" d="M115.891,12.964a14.825,14.825,0,0,0-10.429-10.43C96.2,0,59.163,0,59.163,0s-37.038,0-46.3,2.438A15.128,15.128,0,0,0,2.437,12.964C0,22.223,0,41.425,0,41.425s0,19.3,2.437,28.461a14.828,14.828,0,0,0,10.43,10.43c9.356,2.534,46.3,2.534,46.3,2.534s37.038,0,46.3-2.438a14.825,14.825,0,0,0,10.43-10.429c2.437-9.26,2.437-28.461,2.437-28.461s.1-19.3-2.438-28.558Zm0,0" fill="#3d3535"/>
  <path id="Path_13" data-name="Path 13" d="M204.969,137.964l30.8-17.74-30.8-17.74Zm0,0" transform="translate(-157.598 -78.799)" fill="#fff"/>
</svg>
